<?xml version="1.0" standalone="no"?>
<!DOCTYPE svg PUBLIC "-//W3C//DTD SVG 20010904//EN"
 "http://www.w3.org/TR/2001/REC-SVG-20010904/DTD/svg10.dtd">
<svg version="1.0" xmlns="http://www.w3.org/2000/svg"
 width="460.000000pt" height="460.000000pt" viewBox="0 0 460.000000 460.000000"
 preserveAspectRatio="xMidYMid meet">
<metadata>
Created by potrace 1.11, written by Peter Selinger 2001-2013
</metadata>
<g transform="translate(0.000000,460.000000) scale(0.100000,-0.100000)"
fill="#000000" stroke="none">
<path d="M0 3145 l0 -1455 25 0 c22 0 25 4 25 35 0 19 3 35 6 35 14 0 33 -36
34 -61 0 -21 -6 -28 -26 -33 -14 -4 -34 -4 -45 -1 -19 6 -19 -8 -19 -626 l0
-633 28 27 c31 30 135 87 158 87 8 0 14 5 14 10 0 6 7 10 15 10 8 0 15 4 15 9
0 5 8 11 18 13 11 3 24 27 36 66 11 34 28 71 38 81 10 11 18 27 18 36 0 8 5
15 10 15 6 0 10 5 10 10 0 11 10 25 47 65 13 13 23 27 23 30 0 4 40 47 90 97
86 86 90 92 90 133 0 29 -9 60 -25 89 -14 25 -25 55 -25 68 0 13 -4 29 -9 37
-9 14 -13 9 -50 -54 -10 -16 -11 -5 -7 58 3 42 10 86 16 96 15 29 12 55 -8 82
-10 13 -26 51 -37 84 -11 33 -24 63 -29 67 -18 12 -36 -13 -36 -52 0 -35 -9
-93 -33 -212 -12 -63 -33 -82 -22 -20 3 20 9 62 11 92 3 30 10 59 15 64 5 6 9
37 9 70 0 45 -6 68 -20 86 -21 27 -27 86 -9 92 6 2 11 19 12 39 1 29 -8 44
-46 84 -26 28 -47 56 -47 63 0 6 -4 12 -10 12 -5 0 -10 9 -10 20 0 11 -4 20
-8 20 -5 0 -16 16 -25 35 -9 19 -21 35 -27 35 -5 0 -10 9 -10 20 0 11 -4 20
-10 20 -5 0 -10 15 -10 33 0 18 -4 37 -9 43 -4 5 -16 37 -27 72 -10 34 -21 62
-26 62 -4 0 -8 9 -8 20 0 11 -4 20 -10 20 -5 0 -10 7 -10 15 0 8 -4 15 -10 15
-5 0 -10 6 -10 14 0 7 -7 19 -15 26 -11 9 -13 29 -9 93 6 96 22 177 35 177 5
0 9 5 9 10 0 14 46 60 60 60 6 0 8 5 5 10 -3 6 -16 10 -28 10 -19 0 -67 43
-67 60 0 4 9 10 20 13 34 9 52 70 55 192 2 60 8 130 14 155 16 70 14 111 -5
103 -13 -5 -14 2 -8 48 3 30 13 64 20 76 8 13 17 50 21 83 4 43 10 61 23 65
26 8 48 103 49 218 0 15 5 27 11 27 5 0 10 7 10 15 0 8 -4 15 -9 15 -27 0 -11
59 16 60 4 0 22 21 38 45 17 25 33 45 38 45 4 0 7 9 7 19 0 11 4 23 10 26 17
10 11 25 -10 25 -11 0 -25 -9 -32 -19 -11 -18 -13 -18 -24 -3 -10 13 -6 22 22
51 19 20 34 46 34 59 0 12 5 22 10 22 6 0 10 5 10 10 0 12 16 33 43 58 10 9
30 36 43 59 14 23 42 59 63 81 38 39 101 125 101 138 0 8 52 54 63 54 4 0 7 7
7 15 0 13 -44 15 -340 15 l-340 0 0 -1455z m180 550 c0 -20 -5 -25 -25 -25
-30 0 -31 7 -7 31 24 25 32 23 32 -6z m12 -1983 c18 -8 8 -42 -12 -42 -11 0
-20 6 -20 13 0 6 -10 -2 -21 -20 -12 -20 -26 -30 -35 -26 -17 6 -17 6 1 68 9
28 23 56 32 62 14 11 19 8 32 -20 8 -17 19 -33 23 -35z m93 56 c27 -12 32 -38
15 -82 -14 -39 -30 -31 -30 14 0 37 -2 40 -28 40 -35 0 -44 8 -29 26 15 17 38
17 72 2z"/>
<path d="M930 4592 c0 -5 -11 -15 -25 -22 -14 -7 -25 -17 -25 -21 0 -4 -20
-29 -45 -56 -25 -26 -45 -51 -45 -56 0 -4 -14 -22 -30 -40 -17 -18 -33 -40
-36 -49 -3 -10 -9 -18 -13 -18 -4 0 -15 -20 -25 -45 -11 -25 -23 -45 -28 -45
-4 0 -8 -5 -8 -10 0 -10 -31 -85 -50 -121 -5 -9 -28 -53 -51 -98 -23 -45 -46
-84 -51 -87 -5 -3 -6 -21 -2 -40 3 -19 2 -40 -4 -47 -23 -30 -61 -107 -64
-132 -5 -47 17 -39 47 17 15 29 36 65 47 80 10 14 18 33 18 42 0 9 4 16 8 16
8 0 42 69 42 84 0 7 128 195 140 206 3 3 18 24 33 48 15 23 32 42 37 42 6 0
10 6 10 14 0 21 181 199 225 221 22 11 47 27 55 35 8 9 45 31 83 48 37 18 67
35 67 37 0 3 -70 5 -155 5 -85 0 -155 -4 -155 -8z"/>
<path d="M1890 4593 c0 -5 32 -21 70 -37 39 -15 70 -32 70 -37 0 -5 4 -9 10
-9 14 0 90 -50 146 -96 75 -60 187 -178 221 -232 19 -29 40 -56 61 -77 6 -8
12 -19 12 -25 0 -6 18 -31 41 -55 22 -24 52 -64 66 -90 14 -26 47 -78 74 -116
27 -38 49 -76 49 -84 0 -8 5 -15 10 -15 6 0 10 -9 10 -20 0 -11 5 -20 10 -20
6 0 10 -7 10 -15 0 -8 4 -15 9 -15 11 0 61 -115 61 -141 0 -10 5 -19 10 -19 6
0 10 -6 10 -13 0 -7 16 -50 35 -96 19 -45 35 -91 35 -101 0 -10 5 -22 10 -25
19 -12 11 -73 -11 -88 -18 -13 -19 -18 -7 -36 7 -12 16 -21 20 -21 5 0 8 -48
8 -107 0 -59 4 -120 9 -137 6 -17 15 -57 21 -89 11 -57 13 -58 38 -52 15 4 41
17 57 29 45 34 70 40 100 20 14 -9 25 -23 25 -30 0 -8 4 -14 9 -14 5 0 10 -28
13 -63 3 -55 8 -66 36 -93 41 -40 43 -80 6 -94 -14 -6 -29 -8 -34 -5 -26 16
-93 -100 -109 -190 -5 -33 -12 -71 -15 -85 -8 -50 -46 -186 -58 -210 -14 -28
-17 -32 -53 -77 -14 -17 -24 -37 -22 -45 2 -7 2 -10 0 -5 -7 12 -33 8 -49 -7
-8 -8 -14 -27 -14 -41 0 -26 1 -27 43 -20 23 4 48 12 55 17 17 14 15 0 -2 -18
-8 -8 -34 -14 -59 -14 l-44 0 -22 -65 c-11 -36 -21 -72 -21 -80 0 -8 -4 -15
-8 -15 -4 0 -14 -21 -21 -46 -14 -47 -44 -109 -78 -161 -22 -34 -55 -276 -42
-311 5 -13 9 -33 9 -45 0 -12 11 -34 25 -49 14 -15 25 -31 25 -35 0 -4 20 -29
45 -55 25 -27 45 -52 45 -58 0 -5 5 -10 10 -10 6 0 10 -4 10 -9 0 -5 16 -37
35 -71 19 -34 35 -68 35 -76 0 -8 4 -14 8 -14 4 0 13 -15 20 -33 10 -27 23
-37 82 -61 38 -15 70 -32 70 -37 0 -5 11 -9 24 -9 13 0 26 -4 28 -9 4 -11 151
-40 161 -31 4 4 11 71 14 148 6 138 6 142 -14 142 -12 0 -24 8 -27 17 -7 16 8
33 31 33 6 0 13 24 17 58 5 51 28 512 27 555 0 105 4 177 12 177 4 0 7 -18 7
-39 0 -24 5 -41 14 -44 15 -6 224 10 237 19 5 3 9 17 10 32 1 27 1 26 10 -4 7
-27 16 -33 53 -43 25 -6 66 -11 92 -11 26 0 45 -2 42 -5 -3 -3 -90 -6 -194 -6
-116 1 -201 -4 -220 -11 l-32 -11 -7 -138 c-8 -153 -2 -179 42 -179 49 0 198
-22 221 -33 21 -10 22 -15 20 -116 l-2 -106 -5 105 -6 105 -136 3 -136 3 -7
-32 c-3 -17 -6 -85 -6 -151 l0 -119 103 6 c99 6 164 17 200 36 11 6 17 5 17
-1 0 -6 35 -10 86 -10 59 0 90 -4 99 -14 12 -11 7 -14 -32 -20 -25 -3 -63 -6
-84 -6 -72 0 -70 5 -68 -171 0 -87 5 -161 10 -164 5 -4 9 -19 9 -35 0 -33 14
-40 76 -40 24 0 44 -4 44 -10 0 -6 -27 -10 -61 -10 -56 0 -59 -1 -44 -16 12
-12 28 -15 65 -12 44 5 48 3 40 -13 -11 -20 5 -29 56 -29 24 0 34 -5 34 -15 0
-8 9 -15 20 -15 11 0 20 -4 20 -10 0 -5 11 -10 25 -10 14 0 25 -4 25 -9 0 -5
10 -11 23 -14 113 -29 248 -60 275 -64 17 -3 32 -9 32 -14 0 -5 15 -9 34 -9
19 0 37 -4 40 -9 3 -5 20 -11 38 -14 33 -5 88 -22 121 -38 16 -9 17 101 17
2236 l0 2245 -1005 0 c-847 0 -1005 -2 -1005 -14 0 -7 6 -19 14 -25 8 -6 20
-26 26 -44 23 -57 93 -201 106 -217 6 -8 24 -37 39 -64 22 -40 26 -56 20 -92
-4 -32 -2 -50 9 -66 9 -12 16 -32 16 -43 0 -19 -2 -18 -20 5 -11 14 -32 49
-46 78 -15 28 -32 52 -39 52 -6 0 -17 11 -23 25 -6 14 -16 25 -22 25 -5 0 -10
9 -10 20 0 11 -4 20 -8 20 -4 0 -15 12 -24 28 -9 15 -39 51 -67 81 -27 29 -51
56 -53 61 -2 4 -14 10 -28 14 -14 3 -19 3 -12 0 6 -3 12 -14 12 -25 0 -10 5
-19 10 -19 6 0 10 -11 10 -25 0 -14 -4 -25 -10 -25 -5 0 -10 9 -10 20 0 11 -4
20 -10 20 -5 0 -10 7 -10 15 0 8 -7 15 -15 15 -8 0 -15 6 -15 13 0 6 -14 28
-30 47 -16 19 -30 38 -30 41 0 3 -11 12 -25 19 -14 7 -25 17 -25 22 0 5 -6 16
-14 24 -12 11 -55 14 -215 14 -111 0 -201 -3 -201 -7z m950 -503 c0 -5 -4 -10
-10 -10 -5 0 -10 5 -10 10 0 6 5 10 10 10 6 0 10 -4 10 -10z m1060 -1171 c0
-55 5 -109 11 -120 12 -24 -12 -69 -37 -69 -17 0 -64 44 -64 59 0 13 29 3 53
-17 15 -14 17 -13 17 4 0 11 -9 26 -20 34 -26 19 -25 30 1 30 20 0 21 3 14 69
-7 70 -1 111 16 111 5 0 9 -45 9 -101z m247 14 c-3 -10 -5 -2 -5 17 0 19 2 27
5 18 2 -10 2 -26 0 -35z m23 -64 c0 -5 -4 -9 -10 -9 -5 0 -10 7 -10 16 0 8 5
12 10 9 6 -3 10 -10 10 -16z m-631 -25 c22 -28 28 -64 11 -64 -5 0 -10 9 -10
20 0 11 -3 20 -7 20 -5 0 -16 12 -26 25 -26 36 4 34 32 -1z m-159 -4 c0 -11 5
-20 10 -20 6 0 10 -7 10 -15 0 -9 9 -29 21 -44 20 -27 25 -28 107 -30 122 -2
333 -18 425 -33 61 -9 83 -9 98 0 26 17 29 15 29 -12 0 -21 -4 -24 -32 -22
-18 0 -35 4 -38 7 -3 4 -113 12 -245 18 -132 6 -258 14 -279 18 l-39 6 6 -37
c5 -32 4 -34 -9 -22 -48 49 -105 206 -74 206 6 0 10 -9 10 -20z m373 -29 c3
-14 2 -33 -2 -43 -5 -14 -10 -8 -20 27 -7 25 -17 45 -23 45 -5 0 -6 4 -3 10
10 16 43 -11 48 -39z m440 -81 c-12 -18 -76 -25 -100 -11 -14 8 -8 10 30 11
51 0 50 -1 49 70 l-1 45 16 -50 c10 -33 12 -54 6 -65z m-540 52 c22 -19 22
-32 -1 -32 -20 0 -66 43 -56 53 8 8 35 -2 57 -21z m357 -38 c0 -8 -9 -14 -20
-14 -22 0 -28 26 -7 33 16 6 27 -1 27 -19z m120 -80 c0 -2 -7 -4 -15 -4 -8 0
-15 4 -15 10 0 5 7 7 15 4 8 -4 15 -8 15 -10z m-652 -143 l-3 -46 -35 3 c-19
2 -42 13 -51 24 -14 15 -22 17 -37 9 -15 -8 -22 -8 -25 2 -8 24 6 37 39 37 19
0 34 4 34 9 0 11 47 19 68 13 9 -3 12 -19 10 -51z m491 5 c0 -17 -6 -46 -13
-65 -11 -30 -13 -32 -20 -16 -4 11 -4 43 0 71 4 39 10 51 20 47 8 -3 14 -18
13 -37z m-353 -31 c-8 -8 -28 -15 -45 -15 -31 0 -42 -14 -18 -23 6 -3 2 -6
-10 -6 -14 -1 -23 5 -23 13 0 14 28 28 62 31 10 1 21 5 25 8 3 4 10 7 15 7 5
0 3 -7 -6 -15z m398 -82 c6 -18 4 -22 -8 -17 -10 4 -16 18 -16 38 1 33 11 24
24 -21z m-326 -605 l57 -2 -47 -3 c-27 -2 -48 -8 -48 -14 0 -5 -61 -9 -145 -9
-90 0 -145 -4 -145 -10 0 -5 5 -10 10 -10 6 0 10 -25 10 -55 0 -30 -4 -55 -10
-55 -5 0 -10 20 -10 45 0 25 -4 45 -10 45 -5 0 -10 11 -10 25 l0 25 130 0
c107 0 131 3 135 15 15 46 18 51 22 28 4 -20 11 -23 61 -25z m326 -160 c6 -94
5 -113 -8 -127 -15 -14 -16 -3 -16 112 0 70 4 127 9 127 4 0 11 -50 15 -112z
m3 -170 c-3 -7 -5 -2 -5 12 0 14 2 19 5 13 2 -7 2 -19 0 -25z m493 -71 c0 -26
-6 -36 -25 -45 -21 -10 -25 -9 -25 3 0 8 -9 15 -20 15 -13 0 -20 7 -20 20 0
15 7 20 29 20 17 0 33 5 36 10 13 20 25 9 25 -23z m-68 -116 c3 -21 1 -28 -9
-24 -7 3 -13 18 -13 35 0 36 16 29 22 -11z m98 -147 c0 -4 -8 -13 -17 -20 -16
-11 -16 -16 -5 -34 18 -29 7 -38 -15 -13 -10 11 -24 22 -31 24 -20 7 19 49 46
49 12 0 22 -3 22 -6z m-140 -75 c0 -5 9 -9 20 -9 22 0 27 15 8 23 -8 4 -7 6 4
6 9 1 18 -5 20 -11 6 -17 -16 -38 -39 -38 -16 0 -18 -7 -15 -47 5 -58 -14 -49
-28 13 -11 48 -3 85 16 77 8 -3 14 -9 14 -14z m154 -60 c-11 -18 -24 -8 -24
19 1 26 1 26 15 8 8 -10 12 -23 9 -27z m-517 -101 c-3 -8 -6 -5 -6 6 -1 11 2
17 5 13 3 -3 4 -12 1 -19z m17 -35 c4 -4 30 -15 59 -24 l52 -17 -50 -1 c-27
-1 -56 -5 -64 -10 -9 -6 -19 -4 -28 5 -8 8 -23 14 -33 14 -10 0 -26 3 -35 7
-14 5 -12 8 11 19 33 14 77 18 88 7z m-104 -453 c0 -5 17 -10 38 -11 33 0 35
-1 14 -10 -13 -5 -28 -7 -32 -4 -5 3 -11 1 -15 -5 -10 -16 -50 -12 -73 9 -31
26 -28 31 23 31 25 0 45 -4 45 -10z"/>
<path d="M3421 2534 c0 -11 3 -14 6 -6 3 7 2 16 -1 19 -3 4 -6 -2 -5 -13z"/>
<path d="M2035 3583 c-22 -3 -44 -9 -49 -14 -6 -5 -18 -9 -28 -9 -10 0 -18 -4
-18 -10 0 -5 -9 -10 -20 -10 -11 0 -20 -4 -20 -10 0 -5 -5 -10 -12 -10 -6 0
-29 -18 -49 -40 -36 -39 -38 -43 -41 -123 -2 -45 0 -84 4 -88 4 -3 2 -19 -4
-37 -9 -23 -19 -32 -35 -32 -13 0 -23 -4 -23 -10 0 -5 9 -10 19 -10 10 0 21
-6 24 -14 9 -22 -26 -117 -40 -111 -18 6 -16 -31 4 -90 21 -58 51 -92 67 -74
8 8 7 13 -1 16 -7 3 -13 16 -13 30 0 25 1 25 18 10 25 -23 32 -21 32 8 0 21 5
25 29 25 16 0 34 -7 41 -15 7 -8 18 -15 24 -15 6 0 18 -9 26 -20 8 -11 18 -20
23 -20 4 0 19 -11 32 -24 18 -19 35 -24 69 -24 27 0 50 5 57 14 8 9 33 14 79
14 52 0 73 4 93 20 14 11 30 20 36 20 6 0 11 9 11 19 0 37 12 51 41 51 16 0
29 -4 29 -10 0 -5 18 -10 39 -10 29 0 41 5 44 18 9 36 6 109 -8 163 -19 74
-19 109 0 109 8 0 15 -4 15 -10 0 -5 4 -10 9 -10 5 0 9 24 9 52 1 29 6 54 11
56 6 2 11 32 11 68 0 60 -2 64 -25 70 -14 3 -25 10 -25 15 0 5 -13 9 -30 9
-16 0 -30 4 -30 9 0 13 -24 21 -125 42 -84 17 -200 22 -300 12z m-48 -269 c-3
-3 -12 -4 -19 -1 -8 3 -5 6 6 6 11 1 17 -2 13 -5z m-41 -29 c-16 -17 -36 -20
-36 -6 0 8 17 16 43 20 5 0 2 -6 -7 -14z m-63 -45 c-9 -16 -27 -42 -40 -56
-21 -24 -23 -25 -30 -8 -4 10 -2 19 5 22 7 2 12 8 12 13 0 14 43 58 58 58 10
1 9 -7 -5 -29z m466 -32 c20 -7 54 -30 75 -53 32 -33 36 -41 21 -43 -10 -2
-20 1 -24 6 -12 20 -82 62 -101 62 -11 0 -20 5 -20 10 0 6 -17 10 -37 10 -28
0 -34 3 -23 10 21 13 67 12 109 -2z m-276 -150 c6 -40 -4 -48 -29 -24 -17 18
-18 42 -1 61 16 17 23 9 30 -37z m294 -14 c4 -40 -32 -80 -79 -88 -31 -6 -38
-4 -38 9 0 8 3 15 8 15 4 0 20 27 36 60 27 58 29 60 50 47 12 -8 22 -27 23
-43z"/>
<path d="M1106 3555 c-16 -8 -35 -15 -44 -15 -21 0 -92 -32 -92 -42 0 -4 -13
-8 -30 -8 -32 0 -80 -19 -80 -32 0 -4 -7 -8 -16 -8 -23 0 -74 -39 -74 -56 0
-11 17 -14 73 -15 39 0 106 -7 147 -14 l75 -14 -70 1 c-84 0 -160 -10 -192
-27 l-24 -13 28 -7 c15 -5 33 -7 39 -6 6 0 17 -6 25 -15 14 -17 15 -16 -59
-75 -13 -10 -22 -25 -20 -34 3 -14 6 -13 25 4 12 12 27 21 33 21 5 0 10 4 10
8 0 10 68 32 99 32 32 0 81 -28 75 -43 -2 -6 -38 -30 -79 -51 -41 -22 -75 -43
-75 -48 0 -4 -5 -8 -10 -8 -14 0 -60 -46 -60 -60 0 -18 18 -11 38 15 11 14 33
32 48 40 26 13 29 12 50 -10 13 -14 28 -25 34 -25 14 0 13 -27 -2 -33 -21 -9
48 -67 78 -67 40 0 94 29 94 51 0 11 5 19 10 19 6 0 10 11 10 25 0 19 5 25 21
25 22 0 23 -17 4 -77 -6 -19 -4 -23 15 -23 52 0 94 45 90 98 -1 14 4 22 14 22
18 0 22 25 6 35 -5 3 -8 19 -6 35 4 34 -21 90 -40 90 -8 0 -14 5 -14 10 0 6
-6 10 -14 10 -24 0 -96 43 -96 57 0 8 13 13 35 13 19 0 35 5 35 10 0 6 32 10
75 10 43 0 75 4 75 10 0 6 8 10 18 10 22 1 57 27 42 32 -7 2 -12 21 -13 43 -1
50 -16 65 -63 65 -24 0 -42 7 -54 20 -24 27 -151 37 -194 15z m4 -205 c0 -5
-2 -10 -4 -10 -3 0 -8 5 -11 10 -3 6 -1 10 4 10 6 0 11 -4 11 -10z"/>
<path d="M291 3223 c-1 -12 -5 -25 -11 -28 -13 -8 -13 -45 0 -45 11 0 24 63
17 82 -3 7 -6 3 -6 -9z"/>
<path d="M2758 3173 c6 -3 12 -11 12 -18 0 -15 41 -7 77 14 14 8 5 10 -42 9
-33 -1 -54 -3 -47 -5z"/>
<path d="M1392 3065 c2 -52 6 -66 20 -71 10 -3 22 -3 27 1 11 6 3 75 -10 90
-5 5 -9 17 -9 27 0 10 -7 18 -15 18 -13 0 -15 -12 -13 -65z"/>
<path d="M272 3065 c0 -16 2 -22 5 -12 2 9 2 23 0 30 -3 6 -5 -1 -5 -18z"/>
<path d="M189 2969 c-20 -7 -28 -19 -31 -42 -3 -18 -8 -39 -12 -49 -5 -11 -1
-18 13 -23 17 -5 21 -15 21 -48 1 -47 15 -71 46 -79 31 -8 44 22 44 103 0 49
4 75 15 85 21 22 19 27 -21 47 -39 19 -39 19 -75 6z"/>
<path d="M1150 2941 c0 -6 -9 -11 -20 -11 -21 0 -28 -24 -10 -35 6 -3 10 -1
10 4 0 6 9 11 20 11 21 0 28 24 10 35 -5 3 -10 1 -10 -4z"/>
<path d="M2080 2780 c0 -5 14 -10 30 -10 17 0 30 -4 30 -10 0 -6 33 -9 83 -9
l82 2 -77 8 c-43 4 -86 13 -97 19 -25 13 -51 13 -51 0z"/>
<path d="M3090 2670 c-21 -18 -22 -24 -12 -40 7 -11 12 -42 12 -69 0 -57 20
-113 37 -103 7 4 17 20 22 35 13 35 15 187 2 187 -5 0 -16 2 -23 5 -8 3 -25
-4 -38 -15z"/>
<path d="M3207 2543 c-15 -14 -7 -43 12 -43 14 0 17 6 13 25 -4 25 -13 31 -25
18z"/>
<path d="M2946 2437 c-3 -23 -9 -84 -12 -134 -6 -91 -6 -93 16 -93 23 0 34 9
68 57 28 39 29 99 2 133 -11 14 -20 30 -20 36 0 7 -11 19 -24 27 -24 16 -24
16 -30 -26z"/>
<path d="M1718 2442 c-25 -15 -28 -23 -28 -69 0 -28 -4 -55 -10 -58 -5 -3 -10
-18 -10 -32 0 -44 -80 -97 -92 -61 -3 8 -22 12 -49 11 -24 -1 -79 -2 -121 -3
-43 -1 -78 -6 -78 -11 0 -5 -17 -9 -38 -9 -41 0 -63 -15 -55 -36 3 -9 -2 -14
-18 -14 -29 0 -89 -22 -89 -32 0 -4 -10 -8 -21 -8 -13 0 -45 -24 -80 -61 -58
-59 -69 -81 -49 -94 22 -13 9 -46 -25 -66 -33 -20 -35 -24 -35 -73 0 -73 36
-205 61 -226 3 -3 13 -18 22 -35 16 -29 17 -29 23 -7 3 12 11 22 16 22 12 0
38 26 38 38 0 6 14 22 30 36 30 25 49 25 78 3 11 -9 97 -5 167 7 11 2 49 -6
85 -16 74 -22 138 -37 193 -45 30 -4 37 -2 37 11 0 19 9 20 47 4 62 -25 313
-48 313 -29 0 7 22 11 55 11 32 0 55 -4 55 -10 0 -6 6 -10 13 -9 6 1 22 1 35
0 l22 -1 -19 -38 c-11 -20 -28 -46 -38 -57 -18 -19 -18 -21 -2 -38 16 -18 16
-20 -3 -39 -21 -21 -23 -20 -77 13 -19 11 -37 16 -40 11 -3 -5 -35 -11 -71
-13 -36 -2 -68 -8 -71 -12 -3 -5 -24 -4 -45 2 -49 14 -177 14 -190 1 -6 -6
-28 -11 -50 -13 -21 -2 -49 -8 -61 -15 -12 -7 -31 -12 -43 -12 -34 0 -100 -41
-100 -62 0 -11 -7 -18 -20 -18 -22 0 -25 -7 -10 -30 8 -13 10 -12 10 3 0 9 5
17 10 17 6 0 10 -9 10 -21 0 -11 8 -34 17 -50 9 -15 14 -32 9 -36 -11 -12 -41
12 -44 36 -2 12 -7 19 -12 16 -4 -3 -6 -14 -3 -25 6 -24 -21 -70 -42 -70 -8 0
-15 12 -17 31 -3 30 -3 30 -23 11 -17 -15 -23 -16 -33 -6 -7 7 -12 22 -12 34
0 15 -10 23 -45 32 -37 10 -45 16 -45 35 0 17 -6 23 -23 23 -13 0 -28 -5 -34
-11 -7 -7 -13 -7 -17 -1 -3 5 1 15 9 22 20 16 19 30 -5 60 l-20 25 0 -33 c0
-21 -9 -42 -26 -60 -22 -24 -24 -33 -19 -72 4 -25 10 -49 15 -54 5 -5 2 -15
-6 -23 -12 -12 -14 -40 -9 -154 5 -137 15 -179 43 -179 7 0 25 -20 39 -45 16
-25 36 -45 48 -47 14 -2 21 -12 23 -33 3 -29 41 -75 62 -75 5 0 10 -6 10 -14
0 -7 13 -19 29 -26 16 -6 46 -27 66 -46 21 -19 48 -34 61 -34 12 0 38 -14 56
-30 18 -16 38 -30 45 -30 7 0 13 -5 13 -11 0 -5 20 -10 48 -9 54 1 179 -14
204 -24 9 -4 18 -16 21 -27 7 -25 39 -24 57 1 22 31 94 23 105 -11 5 -14 16
-19 41 -19 19 0 34 5 34 10 0 6 -6 10 -14 10 -14 0 -26 21 -26 46 0 10 13 14
44 14 31 0 46 5 50 16 9 22 8 24 -9 24 -8 0 -15 4 -15 9 0 10 42 39 62 43 19
4 36 38 31 59 -5 18 17 49 35 49 5 0 15 11 22 25 8 14 20 23 27 21 7 -3 15 4
19 18 3 13 21 37 40 52 19 16 34 37 34 46 0 9 5 20 10 23 6 3 10 15 10 25 0
11 12 31 26 45 14 14 24 33 23 43 -5 56 2 112 15 112 18 0 30 31 15 40 -7 5
-9 24 -4 56 8 59 9 127 3 174 -2 19 1 44 6 55 5 11 9 47 7 80 -1 33 -2 86 -1
117 1 31 -4 75 -10 97 -7 28 -7 68 0 138 17 157 18 176 8 215 -4 20 -22 51
-38 69 -17 17 -29 36 -27 42 4 14 -66 87 -85 87 -9 0 -20 4 -23 10 -4 6 -15 4
-29 -5 -18 -12 -30 -13 -50 -6 -14 6 -26 15 -26 21 0 6 -5 8 -11 5 -5 -4 -24
8 -41 25 -25 27 -28 34 -16 41 10 5 14 18 10 34 -2 14 1 32 8 40 17 20 -7 29
-43 16 -38 -14 -147 9 -147 31 0 4 -17 19 -37 33 -45 30 -114 33 -155 7z
m-289 -561 c7 -10 32 -14 95 -13 47 0 89 3 94 6 5 3 18 -1 28 -9 10 -8 30 -15
44 -15 24 -1 24 -1 5 -12 -11 -6 -24 -17 -28 -25 -4 -7 -23 -13 -42 -13 -18 0
-40 -3 -49 -6 -13 -5 -13 -8 -1 -20 7 -8 18 -14 23 -14 13 0 22 -25 22 -58 0
-23 -6 -29 -40 -39 -27 -9 -47 -10 -65 -3 -15 6 -45 10 -67 10 -29 0 -46 6
-60 22 -16 19 -22 20 -39 9 -17 -10 -25 -9 -45 4 -21 13 -25 23 -22 53 2 30 7
38 26 40 l23 4 -22 19 c-12 11 -40 22 -61 25 -39 7 -43 11 -30 31 14 22 198
26 211 4z m327 -31 c21 0 17 -17 -6 -23 -24 -6 -33 5 -23 29 4 11 8 13 11 6 2
-7 10 -12 18 -12z m142 -72 c18 -18 14 -52 -8 -76 -12 -12 -23 -22 -26 -22
-16 0 -44 23 -44 35 0 8 -4 15 -10 15 -5 0 -10 -8 -10 -18 0 -46 -41 -62 -117
-46 -31 6 -33 9 -33 50 0 42 1 44 29 44 17 0 33 5 36 10 9 14 61 12 85 -2 15
-10 23 -10 28 -2 6 10 20 16 53 23 3 0 10 -4 17 -11z m85 -12 c6 -15 -19 -56
-34 -56 -10 0 -13 53 -2 63 11 12 31 8 36 -7z m-926 -518 c-3 -8 -6 -5 -6 6
-1 11 2 17 5 13 3 -3 4 -12 1 -19z"/>
<path d="M1370 2433 c-35 -15 -74 -90 -63 -120 6 -15 63 -18 63 -3 0 5 26 17
58 26 89 26 100 40 54 72 -30 22 -88 35 -112 25z"/>
<path d="M992 1450 c0 -14 2 -19 5 -12 2 6 2 18 0 25 -3 6 -5 1 -5 -13z"/>
<path d="M990 1382 c0 -33 3 -40 15 -36 8 4 15 16 15 29 0 12 -7 28 -15 35
-13 11 -15 7 -15 -28z"/>
<path d="M520 1390 c0 -5 5 -10 10 -10 6 0 10 5 10 10 0 6 -4 10 -10 10 -5 0
-10 -4 -10 -10z"/>
<path d="M1330 1250 c0 -16 5 -30 10 -30 6 0 10 14 10 30 0 17 -4 30 -10 30
-5 0 -10 -13 -10 -30z"/>
<path d="M2673 922 c-8 -5 -13 -58 -16 -162 -5 -160 -13 -226 -28 -236 -5 -3
-9 -16 -9 -28 0 -13 -7 -29 -15 -36 -8 -7 -15 -22 -15 -34 0 -11 -9 -32 -20
-46 -11 -14 -20 -32 -20 -41 0 -9 -8 -23 -17 -32 -10 -9 -27 -33 -38 -54 -22
-41 -53 -72 -72 -73 -12 0 -18 -29 -14 -54 1 -5 -2 -12 -6 -15 -5 -3 -15 -25
-21 -48 -7 -24 -17 -43 -22 -43 -6 0 -10 -4 -10 -10 0 -6 57 -10 150 -10 134
0 151 2 157 18 4 9 18 35 31 57 26 41 68 124 95 185 28 66 39 163 33 296 -6
142 -28 237 -63 278 -13 15 -23 31 -23 36 0 6 -3 10 -8 10 -4 0 -14 11 -22 25
-9 14 -20 21 -27 17z"/>
<path d="M3555 828 c-33 -5 -82 -12 -110 -16 -68 -9 -76 -28 -82 -203 l-6
-139 37 0 c20 0 36 -4 36 -10 0 -5 9 -10 19 -10 11 0 21 -6 24 -12 3 -10 31
-13 101 -11 54 1 101 4 104 8 8 8 4 217 -6 325 -8 86 -7 86 -117 68z"/>
<path d="M610 694 c0 -18 -4 -25 -14 -21 -8 3 -17 -1 -20 -9 -3 -8 -10 -14
-16 -14 -19 0 -57 -44 -64 -73 -5 -20 -1 -35 13 -52 16 -21 18 -36 14 -92 -3
-38 -10 -73 -14 -79 -9 -12 9 -125 21 -134 4 -3 24 -32 45 -65 21 -33 42 -61
47 -63 4 -2 8 -12 8 -23 0 -10 3 -19 8 -19 4 0 12 -10 17 -22 9 -21 18 -23 93
-26 52 -2 82 1 82 8 0 11 -21 52 -31 60 -3 3 -23 37 -44 75 -20 39 -41 72 -46
73 -5 2 -9 15 -9 28 0 13 -4 24 -10 24 -5 0 -10 10 -10 23 0 13 -6 29 -12 35
-9 9 -15 68 -19 185 -3 95 -9 180 -13 190 -12 25 -26 21 -26 -9z"/>
<path d="M2120 411 c0 -11 -3 -28 -7 -38 -6 -16 -5 -16 10 -4 18 14 23 61 7
61 -5 0 -10 -9 -10 -19z"/>
<path d="M1838 273 c7 -3 16 -2 19 1 4 3 -2 6 -13 5 -11 0 -14 -3 -6 -6z"/>
</g>
</svg>
